<?xml version="1.0" encoding="UTF-8" standalone="no"?>
<svg
   xmlns:dc="http://purl.org/dc/elements/1.1/"
   xmlns:cc="http://creativecommons.org/ns#"
   xmlns:rdf="http://www.w3.org/1999/02/22-rdf-syntax-ns#"
   xmlns:svg="http://www.w3.org/2000/svg"
   xmlns="http://www.w3.org/2000/svg"
   xmlns:xlink="http://www.w3.org/1999/xlink"
   xmlns:sodipodi="http://sodipodi.sourceforge.net/DTD/sodipodi-0.dtd"
   xmlns:inkscape="http://www.inkscape.org/namespaces/inkscape"
   viewBox="0 0 1024 1024"
   version="1.1"
   id="svg74"
   sodipodi:docname="APK_format_icon_(2014-2019)2.svg"
   inkscape:version="1.0.1 (3bc2e813f5, 2020-09-07)">
  <metadata
     id="metadata80">
    <rdf:RDF>
      <cc:Work
         rdf:about="">
        <dc:format>image/svg+xml</dc:format>
        <dc:type
           rdf:resource="http://purl.org/dc/dcmitype/StillImage" />
      </cc:Work>
    </rdf:RDF>
  </metadata>
  <defs
     id="defs78">
    <linearGradient
       inkscape:collect="always"
       id="linearGradient986">
      <stop
         style="stop-color:#81ac53;stop-opacity:1"
         offset="0"
         id="stop982" />
      <stop
         style="stop-color:#8bc550;stop-opacity:1"
         offset="1"
         id="stop984" />
    </linearGradient>
    <linearGradient
       inkscape:collect="always"
       xlink:href="#linearGradient986"
       id="linearGradient974"
       gradientUnits="userSpaceOnUse"
       x1="917.03003"
       y1="511.82999"
       x2="916.26007"
       y2="883.28125" />
  </defs>
  <sodipodi:namedview
     pagecolor="#ffffff"
     bordercolor="#666666"
     borderopacity="1"
     objecttolerance="10"
     gridtolerance="10"
     guidetolerance="10"
     inkscape:pageopacity="0"
     inkscape:pageshadow="2"
     inkscape:window-width="1920"
     inkscape:window-height="991"
     id="namedview76"
     showgrid="false"
     inkscape:zoom="0.25"
     inkscape:cx="483.06049"
     inkscape:cy="1423.2762"
     inkscape:window-x="-9"
     inkscape:window-y="-9"
     inkscape:window-maximized="1"
     inkscape:current-layer="svg74" />
  <g
     id="#aad37aff"
     transform="translate(0,22.499957)">
    <path
       fill="#aad37a"
       opacity="1"
       d="m 226.42,44.42 c 9.17,-4.07 20.84,-0.43 26.1,8.12 21.54,34.7 42.95,69.49 64.54,104.17 50.33,-27.71 106.64,-44.47 163.93,-48.77 37.05,-2.74 74.48,-0.6 110.91,6.75 40.18,8.02 79.08,22.29 114.99,41.99 21.6,-34.7 43.04,-69.51 64.61,-104.24 4.11,-6.41 11.82,-10.31 19.44,-9.58 10.69,0.49 19.65,10.27 19.58,20.92 -2.41,-3.62 -3.96,-8.03 -7.56,-10.7 -4.53,-3.35 -10.19,-5.85 -15.93,-4.93 -6.1,0.92 -11.98,4.21 -15.31,9.5 -21.62,34.82 -43.07,69.76 -64.84,104.49 -15.88,-9.2 -32.81,-16.42 -49.85,-23.17 -37.13,-14.3 -76.39,-23.01 -116.07,-25.79 -7.65,-0.09 -15.24,-1.38 -22.9,-1.04 -69.81,-1.04 -139.82,16.31 -200.97,50.04 -8.09,-12.13 -15.3,-24.84 -23.25,-37.08 -13.75,-22.53 -27.79,-44.88 -41.6,-67.37 -3.48,-5.54 -9.78,-8.87 -16.19,-9.57 -5.44,-0.6 -10.65,1.89 -14.94,5.01 -3.68,2.68 -5.16,7.2 -7.76,10.76 0.08,-8.34 5.26,-16.42 13.07,-19.51 z"
       id="path46" />
    <path
       fill="#aad37a"
       opacity="1"
       d="M 119.55,411.44 C 142.77,318.04 201.56,234.3 280.5,179.47 l 0.45,0.36 c 0.22,1.41 0.37,2.84 0.43,4.28 -5.29,4.55 -11.37,8.08 -16.64,12.67 -10.52,7.69 -20.04,16.6 -29.79,25.21 -7.41,7.55 -15.22,14.73 -22.25,22.64 -42.45,46.68 -74.22,103.21 -90.95,164.11 -0.49,1.05 -0.46,2.87 -1.85,3.18 z"
       id="path48" />
    <path
       fill="#aad37a"
       opacity="1"
       d="m 743.02,179.9 0.41,-0.4 c 57.73,40.16 104.77,95.62 134.85,159.22 11.16,23.53 20.08,48.15 26.43,73.42 l -0.59,-0.31 c -1.34,-0.41 -1.32,-2.06 -1.76,-3.12 -24.37,-88.79 -80.6,-168.24 -155.69,-221.41 -2.71,-1.52 -4.81,-4.11 -3.65,-7.4 z"
       id="path50" />
  </g>
  <g
     id="#94c858ff"
     transform="translate(0,22.499957)">
    <path
       fill="#94c858"
       opacity="1"
       d="m 221.11,53.17 c 4.29,-3.12 9.5,-5.61 14.94,-5.01 6.41,0.7 12.71,4.03 16.19,9.57 13.81,22.49 27.85,44.84 41.6,67.37 7.95,12.24 15.16,24.95 23.25,37.08 61.15,-33.73 131.16,-51.08 200.97,-50.04 7.66,-0.34 15.25,0.95 22.9,1.04 39.68,2.78 78.94,11.49 116.07,25.79 17.04,6.75 33.97,13.97 49.85,23.17 21.77,-34.73 43.22,-69.67 64.84,-104.49 3.33,-5.29 9.21,-8.58 15.31,-9.5 5.74,-0.92 11.4,1.58 15.93,4.93 3.6,2.67 5.15,7.08 7.56,10.7 -0.14,4.01 -1.08,8.02 -3.28,11.43 -21.25,34.38 -42.53,68.75 -63.82,103.12 -0.1,0.39 -0.3,1.18 -0.4,1.57 -1.16,3.29 0.94,5.88 3.65,7.4 75.09,53.17 131.32,132.62 155.69,221.41 0.44,1.06 0.42,2.71 1.76,3.12 l 0.66,0.37 c 8.18,32.52 12.56,66.08 12.25,99.63 -270.11,0.03 -540.22,0.07 -810.33,0.11 0.22,-33.57 4.08,-67.21 12.51,-99.74 l 0.69,-0.28 c 1.39,-0.31 1.36,-2.13 1.85,-3.18 16.73,-60.9 48.5,-117.43 90.95,-164.11 7.03,-7.91 14.84,-15.09 22.25,-22.64 9.75,-8.61 19.27,-17.52 29.79,-25.21 5.27,-4.59 11.35,-8.12 16.64,-12.67 -0.06,-1.44 -0.21,-2.87 -0.43,-4.28 -0.23,-1.7 -1.49,-2.99 -2.28,-4.44 -20.67,-33.35 -41.32,-66.7 -61.95,-100.07 -2.22,-3.39 -3.16,-7.39 -3.37,-11.39 2.6,-3.56 4.08,-8.08 7.76,-10.76 m 112.31,235.42 c -13.79,1.96 -26.6,9.7 -34.88,20.88 -7.98,10.62 -11.69,24.3 -10.23,37.5 1.37,13.98 8.68,27.23 19.67,35.96 10.52,8.54 24.39,12.71 37.88,11.5 16,-1.2 31.12,-10.26 39.91,-23.66 6.59,-9.83 9.66,-21.9 8.69,-33.68 -1.06,-15.08 -9.05,-29.43 -21.16,-38.44 -11.23,-8.53 -25.95,-12.19 -39.88,-10.06 m 340.98,0.08 c -12.1,1.82 -23.46,8.05 -31.57,17.22 -9.24,10.26 -14.16,24.23 -13.4,38.02 0.56,14.27 7.3,28.11 18.06,37.47 10.19,9.03 23.93,13.86 37.53,13.17 15.94,-0.56 31.33,-8.87 40.67,-21.78 8.72,-11.8 12.2,-27.32 9.27,-41.71 -2.66,-14.07 -11.38,-26.82 -23.43,-34.54 -10.85,-7.06 -24.35,-9.91 -37.13,-7.85 z"
       id="path53" />
    <path
       fill="#94c858"
       opacity="1"
       d="m 106.7,511.94 c 1.42375,1.62 3.27719,3.65281 4.68,5.22 131.7,131.49 286.46,264.1075 418.08,395.6775 -112.73,-0.37 -248.34225,1.01124 -361.07225,0.86124 -23.18,-3.02132 -47.6943,-16.64066 -56.11589,-38.49874 -1.4,-3.03 -1.35186,-6.52 -4.05186,-8.73 -0.01,-0.02 -0.03,-0.05 -0.04,-0.07 -1.93,-8.35 -1.16,-16.95 -1.31,-25.44 0.08,-109.43 -0.45,-219.59 -0.17,-329.02 z"
       id="path55"
       sodipodi:nodetypes="ccccccccc"
       style="fill:#8fc550;fill-opacity:1" />
  </g>
  <g
     id="#f2f2f2ff"
     transform="translate(0,22.499957)">
    <path
       fill="#f2f2f2"
       opacity="1"
       d="m 333.42,288.59 c 13.93,-2.13 28.65,1.53 39.88,10.06 12.11,9.01 20.1,23.36 21.16,38.44 0.97,11.78 -2.1,23.85 -8.69,33.68 -8.79,13.4 -23.91,22.46 -39.91,23.66 -13.49,1.21 -27.36,-2.96 -37.88,-11.5 -10.99,-8.73 -18.3,-21.98 -19.67,-35.96 -1.46,-13.2 2.25,-26.88 10.23,-37.5 8.28,-11.18 21.09,-18.92 34.88,-20.88 z"
       id="path58" />
    <path
       fill="#f2f2f2"
       opacity="1"
       d="m 674.4,288.67 c 12.78,-2.06 26.28,0.79 37.13,7.85 12.05,7.72 20.77,20.47 23.43,34.54 2.93,14.39 -0.55,29.91 -9.27,41.71 -9.34,12.91 -24.73,21.22 -40.67,21.78 -13.6,0.69 -27.34,-4.14 -37.53,-13.17 -10.76,-9.36 -17.5,-23.2 -18.06,-37.47 -0.76,-13.79 4.16,-27.76 13.4,-38.02 8.11,-9.17 19.47,-15.4 31.57,-17.22 z"
       id="path60" />
  </g>
  <g
     id="#739b4eff"
     transform="matrix(0.99999999,0,0,1.1264903,5.5815621e-7,-42.255496)">
    <path
       fill="#739b4e"
       opacity="1"
       d="m 106.7,511.94 c 270.11,-0.04 540.22,-0.08 810.33,-0.11 -0.04,1.72 -0.04,3.44 -0.03,5.17 H 264.97 c -51.2,0.11 -102.31381,-0.72348 -153.50381,-0.35349 -1.73142,-1.59523 -2.59272,-2.37336 -4.20445,-4.07479 z"
       id="path63"
       sodipodi:nodetypes="ccccccc" />
  </g>
  <g
     id="#ff1500ff"
     style="opacity:1;mix-blend-mode:normal;fill:#80ac52;fill-opacity:1"
     transform="translate(0,22.499957)">
    <path
       opacity="1"
       d="m 111.38,517.16 c 51.19,-0.37 102.39,-0.05 153.59,-0.16 H 917 c -0.04,112.44 0.08,224.88 -0.06,337.32 -1.5,14.5425 -6.395,25.0675 -13.6,35.9425 -4.9,6.15 -13.1375,12.3575 -19.7975,16.4275 -10.13,6.03 -24.4975,6.595 -36.2075,6.365 -54.64,0.17 -106.655,1.145 -161.295,1.205 C 626.1,914.19 563.9,914.5675 506.21,911.9 374.59,780.33 243.08,648.65 111.38,517.16 Z"
       id="path66"
       sodipodi:nodetypes="cccccccccc"
       style="fill:url(#linearGradient974);fill-opacity:1" />
  </g>
  <g
     id="#7ba94bff"
     transform="translate(0,22.499957)">
    <path
       fill="#7ba94b"
       opacity="1"
       d="m 901.84,888.95 c 8.33,-9.75 12.85,-22.15 15.1,-34.63 0.82,26.73 -18.59,51.97 -43.86,59.88 -8.69,3.03 -17.97,3.2 -27.08,3.04 -225.99,-0.27 -451.98,0.02 -677.98,-0.14 -31.96973,0.84841 -62.04968,-31.824 -61.14773,-62.77024 0.15022,7.82889 4.64176,17.42876 6.41975,20.93653 C 123.96085,895.68067 144.81,910.81 167.99,911.71 c 112.73,0.15 225.49,-0.18 338.22,0.19 59.94,0.23 119.89,0.04 179.83,0.11 54.64,-0.06 109.28,0.09 163.92,-0.08 11.71,0.23 23.64,-2.21 33.77,-8.24 6.66,-4.07 13.21,-8.59 18.11,-14.74 z"
       id="path69"
       sodipodi:nodetypes="ccccccccccccc" />
    <path
       fill="#7ba94b"
       opacity="1"
       d="m 108.18,866.4 c 0.01,0.02 0.03,0.05 0.04,0.07 -0.01,-0.02 -0.03,-0.05 -0.04,-0.07 z"
       id="path71" />
  </g>
</svg>
