<?xml version="1.0" encoding="UTF-8" standalone="no"?>
<svg
   xmlns="http://www.w3.org/2000/svg"
   xmlns:xlink="http://www.w3.org/1999/xlink"
   viewBox="0 0 1024 1024"
   version="1.1"
   id="svg74">
  <defs
     id="defs78">
    <linearGradient
       id="linearGradient907">
      <stop
         style="stop-color:#739b4e;stop-opacity:1;"
         offset="0"
         id="stop903" />
      <stop
         style="stop-color:#81ad54;stop-opacity:1"
         offset="1"
         id="stop905" />
    </linearGradient>
    <linearGradient
       id="linearGradient986">
      <stop
         style="stop-color:#81ac53;stop-opacity:1"
         offset="0"
         id="stop982" />
      <stop
         style="stop-color:#8bc550;stop-opacity:1"
         offset="1"
         id="stop984" />
    </linearGradient>
    <linearGradient
       xlink:href="#linearGradient986"
       id="linearGradient974"
       gradientUnits="userSpaceOnUse"
       x1="917.03003"
       y1="511.82999"
       x2="916.26007"
       y2="883.28125" />
    <linearGradient
       xlink:href="#linearGradient907"
       id="linearGradient909"
       x1="106.7"
       y1="511.85193"
       x2="106.70095"
       y2="517.01154"
       gradientUnits="userSpaceOnUse" />
  </defs>
  <g
     id="#aad37aff"
     transform="translate(0,22.499957)">
    <path
       fill="#aad37a"
       opacity="1"
       d="m 226.42,44.42 c 9.17,-4.07 20.84,-0.43 26.1,8.12 21.54,34.7 42.95,69.49 64.54,104.17 50.33,-27.71 106.64,-44.47 163.93,-48.77 37.05,-2.74 74.48,-0.6 110.91,6.75 40.18,8.02 79.08,22.29 114.99,41.99 21.6,-34.7 43.04,-69.51 64.61,-104.24 4.11,-6.41 11.82,-10.31 19.44,-9.58 10.69,0.49 19.65,10.27 19.58,20.92 -2.41,-3.62 -3.96,-8.03 -7.56,-10.7 -4.53,-3.35 -10.19,-5.85 -15.93,-4.93 -6.1,0.92 -11.98,4.21 -15.31,9.5 -21.62,34.82 -43.07,69.76 -64.84,104.49 -15.88,-9.2 -32.81,-16.42 -49.85,-23.17 -37.13,-14.3 -76.39,-23.01 -116.07,-25.79 -7.65,-0.09 -15.24,-1.38 -22.9,-1.04 -69.81,-1.04 -139.82,16.31 -200.97,50.04 -8.09,-12.13 -15.3,-24.84 -23.25,-37.08 -13.75,-22.53 -27.79,-44.88 -41.6,-67.37 -3.48,-5.54 -9.78,-8.87 -16.19,-9.57 -5.44,-0.6 -10.65,1.89 -14.94,5.01 -3.68,2.68 -5.16,7.2 -7.76,10.76 0.08,-8.34 5.26,-16.42 13.07,-19.51 z"
       id="path46" />
    <path
       fill="#aad37a"
       opacity="1"
       d="M 119.55,411.44 C 142.77,318.04 201.56,234.3 280.5,179.47 l 0.45,0.36 c 0.22,1.41 0.37,2.84 0.43,4.28 -5.29,4.55 -11.37,8.08 -16.64,12.67 -10.52,7.69 -20.04,16.6 -29.79,25.21 -7.41,7.55 -15.22,14.73 -22.25,22.64 -42.45,46.68 -74.22,103.21 -90.95,164.11 -0.49,1.05 -0.46,2.87 -1.85,3.18 z"
       id="path48" />
    <path
       fill="#aad37a"
       opacity="1"
       d="m 743.02,179.9 0.41,-0.4 c 57.73,40.16 104.77,95.62 134.85,159.22 11.16,23.53 20.08,48.15 26.43,73.42 l -0.59,-0.31 c -1.34,-0.41 -1.32,-2.06 -1.76,-3.12 -24.37,-88.79 -80.6,-168.24 -155.69,-221.41 -2.71,-1.52 -4.81,-4.11 -3.65,-7.4 z"
       id="path50" />
  </g>
  <g
     id="#94c858ff"
     transform="translate(0,22.499957)"
     style="fill-rule:nonzero">
    <path
       id="path53"
       style="fill-rule:nonzero;fill:#94c858;fill-opacity:1"
       d="M 789.17578 70.460938 C 788.46283 70.474081 787.7468 70.535391 787.0293 70.650391 C 780.9293 71.570391 775.0507 74.860391 771.7207 80.150391 C 750.1007 114.97039 728.65086 149.91063 706.88086 184.64062 C 691.00086 175.44063 674.0693 168.2207 657.0293 161.4707 C 619.8993 147.1707 580.64094 138.45969 540.96094 135.67969 C 533.31094 135.58969 525.72055 134.30062 518.06055 134.64062 C 448.25055 133.60062 378.23984 150.94969 317.08984 184.67969 C 308.99984 172.54969 301.78984 159.83961 293.83984 147.59961 C 280.08984 125.06961 266.05023 102.72047 252.24023 80.230469 C 248.76023 74.690469 242.46078 71.360156 236.05078 70.660156 C 230.61078 70.060156 225.39937 72.549922 221.10938 75.669922 C 217.42937 78.349922 215.94961 82.869687 213.34961 86.429688 C 213.55961 90.429688 214.5007 94.430312 216.7207 97.820312 C 237.3507 131.19031 257.99992 164.54063 278.66992 197.89062 C 279.45992 199.34062 280.71922 200.63008 280.94922 202.33008 C 281.16922 203.74008 281.32086 205.16938 281.38086 206.60938 C 276.09086 211.15937 270.01023 214.6893 264.74023 219.2793 C 254.22023 226.9693 244.69922 235.88023 234.94922 244.49023 C 227.53922 252.04023 219.72922 259.22086 212.69922 267.13086 C 170.24922 313.81086 138.48 370.34023 121.75 431.24023 C 121.26 432.29023 121.29039 434.10992 119.90039 434.41992 L 119.21094 434.69922 C 110.78094 467.22922 106.91922 500.86945 106.69922 534.43945 C 376.80922 534.39945 646.9193 534.36008 917.0293 534.33008 C 917.3393 500.78008 912.9593 467.21922 904.7793 434.69922 L 904.11914 434.33008 C 902.77914 433.92008 902.79938 432.26898 902.35938 431.20898 C 877.98937 342.41898 821.75992 262.97078 746.66992 209.80078 C 743.95992 208.28078 741.85953 205.69039 743.01953 202.40039 C 743.11953 202.01039 743.31992 201.22008 743.41992 200.83008 C 764.70992 166.46008 785.99023 132.08898 807.24023 97.708984 C 809.44023 94.298984 810.37953 90.289297 810.51953 86.279297 C 808.10953 82.659297 806.56094 78.250078 802.96094 75.580078 C 798.99719 72.648828 794.16643 70.368926 789.17578 70.460938 z "
       transform="translate(0,-22.499957)" />
    <path
       opacity="1"
       d="m 106.7,511.94 c 1.50109,1.52056 3.71312,3.41007 4.96125,5.0325 131.7,131.49 286.17875,264.295 417.79875,395.865 -112.73,-0.37 -248.34225,1.01124 -361.07225,0.86124 -23.18,-3.02132 -47.6943,-16.64066 -56.11589,-38.49874 -1.4,-3.03 -1.35186,-6.52 -4.05186,-8.73 -0.01,-0.02 -0.03,-0.05 -0.04,-0.07 -1.93,-8.35 -1.16,-16.95 -1.31,-25.44 0.08,-109.43 -0.45,-219.59 -0.17,-329.02 z"
       id="path55"
       style="fill:#8fc550;fill-opacity:1;fill-rule:nonzero" />
  </g>
  <g
     id="#f2f2f2ff"
     transform="translate(0,22.499957)">
    <path
       fill="#f2f2f2"
       opacity="1"
       d="m 333.42,288.59 c 13.93,-2.13 28.65,1.53 39.88,10.06 12.11,9.01 20.1,23.36 21.16,38.44 0.97,11.78 -2.1,23.85 -8.69,33.68 -8.79,13.4 -23.91,22.46 -39.91,23.66 -13.49,1.21 -27.36,-2.96 -37.88,-11.5 -10.99,-8.73 -18.3,-21.98 -19.67,-35.96 -1.46,-13.2 2.25,-26.88 10.23,-37.5 8.28,-11.18 21.09,-18.92 34.88,-20.88 z"
       id="path58" />
    <path
       fill="#f2f2f2"
       opacity="1"
       d="m 674.4,288.67 c 12.78,-2.06 26.28,0.79 37.13,7.85 12.05,7.72 20.77,20.47 23.43,34.54 2.93,14.39 -0.55,29.91 -9.27,41.71 -9.34,12.91 -24.73,21.22 -40.67,21.78 -13.6,0.69 -27.34,-4.14 -37.53,-13.17 -10.76,-9.36 -17.5,-23.2 -18.06,-37.47 -0.76,-13.79 4.16,-27.76 13.4,-38.02 8.11,-9.17 19.47,-15.4 31.57,-17.22 z"
       id="path60" />
  </g>
  <g
     id="#ff1500ff"
     style="opacity:1;fill:#80ac52;fill-opacity:1"
     transform="translate(0,22.499957)">
    <path
       opacity="1"
       d="m 111.38,517.16 c 51.19,-0.37 102.39,-0.05 153.59,-0.16 H 917 c -0.04,112.44 0.08,224.88 -0.06,337.32 -1.5,14.5425 -6.395,25.0675 -13.6,35.9425 -4.9,6.15 -13.1375,12.3575 -19.7975,16.4275 -10.13,6.03 -24.4975,6.595 -36.2075,6.365 -54.64,0.17 -106.655,1.145 -161.295,1.205 C 626.1,914.19 563.9,914.5675 506.21,911.9 374.59,780.33 243.08,648.65 111.38,517.16 Z"
       id="path66"
       style="fill:url(#linearGradient974);fill-opacity:1" />
  </g>
  <g
     id="#739b4eff"
     transform="matrix(0.99999999,0,0,5.6421089,5.5815621e-7,-2353.4843)">
    <path
       d="m 106.7,511.85192 c 270.11,-0.04 540.22,-0.08 810.33,-0.11 -0.04,1.72 -0.0478,3.45385 -0.0378,5.18385 L 264.97,516.91192 c -51.2,0.11 -77.97244,0.007 -130.2231,0.0323 -6.72269,-1.19298 -17.77179,-3.12416 -24.59844,-4.41005 z"
       id="path63"
       style="fill:url(#linearGradient909);fill-opacity:1" />
  </g>
  <g
     id="#7ba94bff"
     transform="translate(0,22.499957)">
    <path
       fill="#7ba94b"
       opacity="1"
       d="m 901.84,888.95 c 8.33,-9.75 12.85,-22.15 15.1,-34.63 0.82,26.73 -18.59,51.97 -43.86,59.88 -8.69,3.03 -17.97,3.2 -27.08,3.04 -225.99,-0.27 -451.98,0.02 -677.98,-0.14 -31.96973,0.84841 -62.04968,-31.824 -61.14773,-62.77024 0.15022,7.82889 4.64176,17.42876 6.41975,20.93653 C 123.96085,895.68067 144.81,910.81 167.99,911.71 c 112.73,0.15 225.49,-0.18 338.22,0.19 59.94,0.23 119.89,0.04 179.83,0.11 54.64,-0.06 109.28,0.09 163.92,-0.08 11.71,0.23 23.64,-2.21 33.77,-8.24 6.66,-4.07 13.21,-8.59 18.11,-14.74 z"
       id="path69" />
    <path
       fill="#7ba94b"
       opacity="1"
       d="m 108.18,866.4 c 0.01,0.02 0.03,0.05 0.04,0.07 -0.01,-0.02 -0.03,-0.05 -0.04,-0.07 z"
       id="path71" />
  </g>
</svg>
